<svg width="100" height="100" viewBox="0 0 100 100" xmlns="http://www.w3.org/2000/svg">
  <defs>
    <linearGradient id="logoGradient" x1="0%" y1="0%" x2="100%" y2="100%">
      <stop offset="0%" style="stop-color:#00A3FF;" />
      <stop offset="100%" style="stop-color:#8A2BE2;" />
    </linearGradient>
  </defs>
  <path fill="url(#logoGradient)" d="M50 0 C22.38 0 0 22.38 0 50 C0 77.62 22.38 100 50 100 C77.62 100 100 77.62 100 50 C100 22.38 77.62 0 50 0 Z M50 90 C27.91 90 10 72.09 10 50 C10 27.91 27.91 10 50 10 C72.09 10 90 27.91 90 50 C90 72.09 72.09 90 50 90 Z" />
  <path fill="#00FFFF" d="M55 25 L40 55 L50 55 L45 75 L60 45 L50 45 L55 25 Z" />
</svg>